<?xml version="1.0" standalone="no"?>
<!DOCTYPE svg PUBLIC "-//W3C//DTD SVG 20010904//EN"
 "http://www.w3.org/TR/2001/REC-SVG-20010904/DTD/svg10.dtd">
<svg version="1.0" xmlns="http://www.w3.org/2000/svg"
 width="1280.000000pt" height="1280.000000pt" viewBox="0 0 1280.000000 1280.000000"
 preserveAspectRatio="xMidYMid meet">
<metadata>
Created by potrace 1.14, written by Peter Selinger 2001-2017
</metadata>
<g transform="translate(0.000000,1280.000000) scale(0.100000,-0.100000)"
fill="#000000" stroke="none">
<path d="M6337 12737 c-32 -34 -138 -143 -235 -243 -218 -223 -439 -459 -617
-659 -33 -37 -69 -77 -80 -89 -11 -12 -47 -53 -80 -90 -33 -38 -69 -78 -80
-90 -11 -12 -42 -48 -70 -81 -27 -32 -55 -63 -60 -69 -62 -67 -465 -547 -585
-696 -47 -58 -92 -113 -100 -123 -8 -10 -22 -27 -30 -37 -8 -10 -24 -30 -34
-45 -11 -14 -28 -36 -39 -48 -11 -12 -40 -49 -65 -82 -26 -33 -52 -67 -59 -75
-6 -8 -33 -41 -59 -73 -25 -32 -150 -197 -275 -365 -126 -169 -233 -311 -237
-317 -13 -17 -106 -147 -122 -171 -8 -12 -42 -60 -74 -106 -152 -212 -553
-823 -637 -968 -4 -8 -30 -51 -57 -95 -55 -90 -192 -328 -242 -420 -18 -33
-44 -80 -58 -105 -39 -71 -278 -543 -286 -565 -3 -11 -17 -40 -31 -65 -13 -25
-24 -53 -24 -62 -1 -10 -5 -18 -11 -18 -5 0 -10 -6 -10 -14 0 -8 -11 -36 -24
-63 -13 -26 -32 -68 -41 -93 -10 -25 -26 -63 -36 -85 -127 -298 -267 -737
-333 -1045 -17 -80 -36 -176 -41 -213 -3 -23 -8 -49 -10 -57 -2 -8 -7 -40 -10
-70 -3 -30 -8 -66 -10 -80 -27 -153 -27 -692 1 -902 2 -18 6 -55 9 -83 3 -27
7 -66 10 -85 3 -19 7 -51 10 -70 3 -19 7 -46 10 -60 3 -14 7 -43 10 -65 3 -22
7 -47 10 -55 2 -8 7 -28 10 -45 6 -37 10 -56 25 -120 6 -27 14 -59 16 -71 13
-68 128 -449 153 -509 5 -11 14 -36 21 -55 7 -19 21 -54 31 -77 11 -24 19 -45
19 -48 0 -3 10 -27 21 -53 12 -26 31 -67 41 -92 86 -193 234 -466 356 -655 64
-97 230 -330 255 -357 6 -7 30 -36 51 -63 112 -141 297 -340 458 -490 107
-100 204 -185 233 -205 23 -16 116 -91 125 -101 3 -3 57 -42 120 -87 63 -44
120 -86 127 -92 7 -5 14 -10 17 -10 2 0 31 -17 63 -38 309 -204 718 -401 1098
-527 139 -46 407 -119 480 -131 17 -3 37 -7 45 -10 8 -3 29 -8 45 -11 17 -2
41 -6 55 -9 200 -37 340 -55 555 -71 181 -14 705 -7 835 11 19 3 60 8 90 11
52 5 229 31 278 41 12 2 34 6 50 9 15 3 50 10 77 16 28 6 61 13 75 15 14 3 43
10 65 16 22 5 47 11 55 13 53 11 328 92 380 112 8 3 20 7 25 9 184 53 623 255
855 395 63 37 121 71 129 75 27 14 331 222 341 234 3 3 23 19 45 36 72 52 248
200 307 257 10 9 23 17 28 17 6 0 10 7 10 15 0 8 3 15 8 15 8 0 134 122 232
226 154 163 360 421 464 579 22 33 42 62 45 65 7 6 7 7 100 160 108 180 267
480 254 480 -3 0 -1 6 5 12 26 33 158 372 217 558 27 85 92 317 100 355 2 11
6 30 8 41 3 12 8 38 11 59 4 20 8 41 11 45 3 4 7 24 9 44 3 19 10 64 16 98 7
35 14 76 16 91 2 15 5 44 8 65 3 20 8 60 11 87 3 28 8 66 10 85 20 159 27 632
12 785 -12 130 -28 252 -43 330 -2 11 -8 45 -14 75 -6 30 -12 66 -15 80 -3 14
-10 45 -15 70 -16 76 -17 82 -44 180 -28 105 -60 217 -68 240 -3 8 -24 74 -47
145 -23 72 -46 139 -51 150 -5 11 -34 88 -65 170 -32 83 -66 170 -77 195 -28
64 -44 99 -66 150 -62 147 -307 644 -377 765 -16 28 -43 75 -59 106 -94 173
-252 441 -401 679 -75 121 -398 612 -416 634 -5 6 -40 56 -78 111 -143 206
-575 798 -628 860 -8 9 -183 235 -257 330 -17 22 -33 42 -36 45 -3 3 -24 28
-45 55 -22 28 -42 52 -45 55 -3 3 -32 39 -64 80 -33 41 -100 124 -150 185 -50
60 -98 118 -106 129 -8 10 -20 23 -25 30 -6 6 -50 58 -99 116 -48 58 -97 116
-109 130 -27 31 -144 168 -201 233 -22 27 -54 63 -71 81 -26 29 -116 130 -168
190 -17 19 -113 126 -177 196 -262 287 -317 345 -691 728 -71 72 -130 132
-132 131 -1 0 -28 -28 -60 -62z"/>
</g>
</svg>
